<svg width="48" height="36" viewBox="0 0 48 36" fill="none" xmlns="http://www.w3.org/2000/svg">
<path fill-rule="evenodd" clip-rule="evenodd" d="M14.4948 0.682991C14.8746 0.248961 15.4233 0 16 0H42C43.5913 0 45.1174 0.632141 46.2426 1.75736C47.3679 2.88258 48 4.4087 48 6V30C48 31.5913 47.3679 33.1174 46.2426 34.2426C45.1174 35.3679 43.5913 36 42 36H16C15.4233 36 14.8746 35.751 14.4948 35.317L0.494847 19.317C-0.164949 18.563 -0.164949 17.437 0.494847 16.683L14.4948 0.682991ZM16.9075 4L4.65754 18L16.9075 32H42C42.5304 32 43.0391 31.7893 43.4142 31.4142C43.7893 31.0391 44 30.5304 44 30V6C44 5.46957 43.7893 4.96086 43.4142 4.58579C43.0391 4.21071 42.5304 4 42 4H16.9075Z" fill="white"/>
<path fill-rule="evenodd" clip-rule="evenodd" d="M37.4142 10.5858C38.1953 11.3668 38.1953 12.6332 37.4142 13.4142L25.4142 25.4142C24.6332 26.1953 23.3668 26.1953 22.5858 25.4142C21.8047 24.6332 21.8047 23.3668 22.5858 22.5858L34.5858 10.5858C35.3668 9.80474 36.6332 9.80474 37.4142 10.5858Z" fill="white"/>
<path fill-rule="evenodd" clip-rule="evenodd" d="M22.5858 10.5858C23.3668 9.80474 24.6332 9.80474 25.4142 10.5858L37.4142 22.5858C38.1953 23.3668 38.1953 24.6332 37.4142 25.4142C36.6332 26.1953 35.3668 26.1953 34.5858 25.4142L22.5858 13.4142C21.8047 12.6332 21.8047 11.3668 22.5858 10.5858Z" fill="white"/>
</svg>
