<svg width="46" height="46" viewBox="0 0 46 46" fill="none" xmlns="http://www.w3.org/2000/svg">
<path d="M27.9635 10.0313C29.9231 10.4136 31.724 11.372 33.1358 12.7838C34.5475 14.1955 35.5059 15.9965 35.8882 17.956M27.9635 2.00626C32.0348 2.45854 35.8312 4.28171 38.7296 7.17641C41.6279 10.0711 43.4559 13.8653 43.9133 17.936M41.907 33.9459V39.9647C41.9093 40.5235 41.7948 41.0765 41.571 41.5885C41.3471 42.1004 41.0188 42.56 40.6071 42.9377C40.1954 43.3155 39.7093 43.603 39.18 43.782C38.6507 43.9611 38.0898 44.0275 37.5334 43.9772C31.3598 43.3064 25.4296 41.1969 20.2193 37.818C15.3719 34.7377 11.2621 30.6279 8.18177 25.7805C4.79114 20.5465 2.68109 14.5875 2.02255 8.38617C1.97241 7.83137 2.03834 7.27222 2.21615 6.7443C2.39396 6.21638 2.67974 5.73126 3.0553 5.31984C3.43086 4.90842 3.88798 4.57971 4.39754 4.35463C4.9071 4.12956 5.45795 4.01305 6.01501 4.01252H12.0338C13.0074 4.00294 13.9514 4.34773 14.6896 4.98261C15.4278 5.6175 15.91 6.49918 16.0463 7.46329C16.3003 9.38944 16.7715 11.2807 17.4507 13.1009C17.7206 13.819 17.779 14.5994 17.619 15.3497C17.459 16.0999 17.0873 16.7886 16.5479 17.3341L13.9999 19.882C16.8559 24.9048 21.0147 29.0636 26.0375 31.9196L28.5854 29.3717C29.1309 28.8323 29.8196 28.4605 30.5699 28.3005C31.3201 28.1405 32.1006 28.1989 32.8187 28.4688C34.6389 29.1481 36.5301 29.6192 38.4562 29.8732C39.4308 30.0107 40.3209 30.5016 40.9571 31.2525C41.5934 32.0034 41.9314 32.962 41.907 33.9459Z" stroke="white" stroke-width="2" stroke-linecap="round" stroke-linejoin="round"/>
</svg>
