<svg width="231" height="48" viewBox="0 0 231 48" fill="none" xmlns="http://www.w3.org/2000/svg">
<path d="M13.8095 47.7524C8.32439 47.7524 3.48463 45.9455 -4.79203e-06 42.2673L1.80684 39.1698C5.54959 42.719 9.35688 44.2032 13.6159 44.2032C18.8428 44.2032 22.4565 42.0092 22.4565 38.0728C22.4565 34.072 18.7138 33.4266 12.5189 31.8134C5.54959 29.8775 1.9359 28.0706 1.9359 22.7792C1.9359 16.3261 7.35644 12.906 14.5193 12.906C19.6172 12.906 23.7471 14.6484 26.1993 17.5522L24.0698 20.5206C21.7467 17.8103 18.262 16.4552 14.2612 16.4552C10.1312 16.4552 6.06584 17.9394 6.06584 22.2629C6.06584 25.8121 8.77611 26.651 14.1321 28.1997C21.8112 30.2647 26.7155 31.6843 26.7155 37.7502C26.7155 44.0096 21.5531 47.7524 13.8095 47.7524ZM48.2943 47.7524C38.5502 47.7524 31.6455 39.7506 31.6455 30.3937C31.6455 20.9723 38.6793 12.906 48.2943 12.906C57.9738 12.906 65.0076 20.9723 65.0076 30.3937C65.0076 39.7506 58.0384 47.7524 48.2943 47.7524ZM36.0981 30.4583C36.0981 37.9438 41.5832 43.8805 48.2943 43.8805C55.0055 43.8805 60.555 37.8147 60.555 30.3292C60.555 22.8437 55.0055 16.7779 48.2943 16.7779C41.6477 16.7779 36.0981 22.9082 36.0981 30.4583ZM96.3517 47.1071L83.8973 29.8775L76.7345 36.5886V47.1071H72.3464V-4.28714e-06H76.7345V31.8779L95.7709 13.5513H100.611L86.8657 27.2963L101.127 47.1071H96.3517ZM119.32 47.7524C109.576 47.7524 102.478 39.7506 102.478 30.2001C102.478 20.7787 109.576 12.906 119.255 12.906C129.128 12.906 135.904 20.9078 135.904 30.1356C135.904 30.8454 135.904 31.5553 135.84 31.8779H107.059C107.64 39.1053 113.06 44.3968 119.513 44.3968C123.902 44.3968 128.225 41.9446 129.838 38.3309L133.646 39.3634C131.581 44.2677 125.837 47.7524 119.32 47.7524ZM106.93 28.7159H131.774C131.193 21.424 125.902 16.3261 119.32 16.3261C112.738 16.3261 107.382 21.4886 106.93 28.7159ZM142.352 33.2331V13.4868H146.74V32.4587C146.74 40.1378 149.321 43.8805 154.548 43.8805C159.71 43.8805 164.679 40.2669 166.68 34.6527V13.4868H171.068V41.8156C171.068 43.0417 171.519 43.5579 172.616 43.6224V47.1071C171.584 47.2361 171.132 47.2361 170.551 47.2361C168.744 47.1071 167.389 45.7519 167.325 44.0096L167.196 39.4925C164.292 44.7194 158.936 47.7524 153.064 47.7524C146.03 47.7524 142.352 42.7835 142.352 33.2331ZM231 47.1071H226.612V28.3288C226.612 20.5206 224.095 16.9069 219.191 16.9069C214.093 16.9069 209.77 20.9078 208.156 26.5864V47.1071H203.768V28.3288C203.768 20.3915 201.381 16.9069 196.412 16.9069C191.378 16.9069 187.055 20.7787 185.377 26.5219V47.1071H180.989V13.4868H184.99V21.1014C187.765 15.939 192.411 12.906 197.831 12.906C203.446 12.906 206.995 16.4552 207.769 21.5531C210.867 15.8744 215.255 12.906 220.74 12.906C228.29 12.906 231 18.6492 231 27.4253V47.1071Z" fill="#D95204"/>
</svg>
