<svg width="20" height="20" viewBox="0 0 20 20" fill="none" xmlns="http://www.w3.org/2000/svg">
<path d="M17.9135 8.82654C18.1603 10.491 17.876 12.191 17.101 13.6846C16.326 15.1782 15.0998 16.3894 13.5967 17.1459C12.0937 17.9024 10.3904 18.1657 8.72905 17.8984C7.06773 17.6311 5.533 16.8467 4.34315 15.6569C3.15331 14.467 2.36894 12.9323 2.10161 11.271C1.83428 9.60965 2.09761 7.90633 2.85413 6.40329C3.61065 4.90025 4.82185 3.67402 6.31545 2.89902C7.80904 2.12402 9.50899 1.83972 11.1735 2.08654C12.8713 2.33831 14.4432 3.12947 15.6569 4.34315C16.8706 5.55684 17.6617 7.12869 17.9135 8.82654Z" stroke="white" stroke-width="2" stroke-linecap="round" stroke-linejoin="round"/>
</svg>
