<svg width="44" height="44" viewBox="0 0 44 44" fill="none" xmlns="http://www.w3.org/2000/svg">
<path fill-rule="evenodd" clip-rule="evenodd" d="M22 4C12.0589 4 4 12.0589 4 22C4 31.9411 12.0589 40 22 40C31.9411 40 40 31.9411 40 22C40 12.0589 31.9411 4 22 4ZM0 22C0 9.84974 9.84974 0 22 0C34.1503 0 44 9.84974 44 22C44 34.1503 34.1503 44 22 44C9.84974 44 0 34.1503 0 22Z" fill="#737373"/>
<path fill-rule="evenodd" clip-rule="evenodd" d="M22 20C23.1046 20 24 20.8954 24 22V30C24 31.1046 23.1046 32 22 32C20.8954 32 20 31.1046 20 30V22C20 20.8954 20.8954 20 22 20Z" fill="#737373"/>
<path fill-rule="evenodd" clip-rule="evenodd" d="M20 14C20 12.8954 20.8954 12 22 12H22.02C23.1246 12 24.02 12.8954 24.02 14C24.02 15.1046 23.1246 16 22.02 16H22C20.8954 16 20 15.1046 20 14Z" fill="#737373"/>
</svg>
